<?xml version="1.0" standalone="no"?>
<!DOCTYPE svg PUBLIC "-//W3C//DTD SVG 20010904//EN"
 "http://www.w3.org/TR/2001/REC-SVG-20010904/DTD/svg10.dtd">
<svg version="1.0" xmlns="http://www.w3.org/2000/svg"
 width="500.000000pt" height="500.000000pt" viewBox="0 0 500.000000 500.000000"
 preserveAspectRatio="xMidYMid meet">
<metadata>
Created by potrace 1.16, written by Peter Selinger 2001-2019
</metadata>
<g transform="translate(0.000000,500.000000) scale(0.100000,-0.100000)"
fill="#000000" stroke="none">
<path d="M843 4303 l-35 -36 4 -248 3 -248 32 -28 c80 -69 78 -250 -3 -293
-19 -11 -23 -23 -29 -94 -3 -44 -3 -207 1 -361 4 -154 6 -319 5 -368 -2 -71 0
-88 13 -93 9 -4 23 0 32 7 8 7 38 13 65 13 l49 1 0 41 c0 68 19 148 40 169 19
19 21 19 37 1 17 -17 17 -17 -6 -14 -21 3 -26 -2 -32 -32 -8 -40 -34 -1312
-30 -1488 1 -49 13 -77 39 -91 9 -5 269 -12 581 -17 l563 -7 41 -41 40 -41 10
30 c13 39 14 40 31 26 8 -6 13 -25 12 -42 -2 -33 1 -36 59 -61 l40 -17 -115
-2 c-63 0 -129 -2 -147 -4 -90 -8 -90 -8 -93 -405 -2 -184 -2 -361 -1 -392 l1
-58 99 0 99 0 7 67 c4 36 9 71 11 77 3 7 -14 11 -45 12 -29 0 -60 8 -76 18
-27 18 -27 18 -7 38 16 17 23 18 41 8 31 -16 75 -9 79 13 3 12 -9 22 -42 36
-59 26 -86 54 -86 91 0 45 39 80 89 80 40 0 91 -17 91 -30 0 -4 -9 -15 -19
-24 -16 -14 -23 -15 -41 -6 -27 14 -60 4 -60 -19 0 -12 17 -26 53 -42 28 -12
54 -24 57 -26 13 -7 50 80 50 116 0 37 2 41 25 41 16 0 25 -6 25 -16 0 -21 50
-11 65 13 6 9 26 35 46 57 62 71 78 123 39 133 -11 3 -20 11 -20 18 0 9 13 11
48 7 53 -5 62 -10 43 -21 -17 -11 9 -21 55 -21 61 0 38 -47 -23 -48 -41 -1
-53 -8 -53 -32 0 -10 -5 -22 -10 -25 -8 -5 -15 -55 -7 -55 1 0 26 7 56 14 33
9 61 12 75 6 12 -4 29 -4 38 1 12 7 22 3 37 -13 12 -12 21 -25 21 -29 0 -10
-106 -19 -251 -21 l-125 -2 10 -23 c6 -12 24 -28 39 -34 39 -16 47 -37 47
-123 0 -74 -1 -76 -25 -76 -24 0 -25 3 -25 61 0 66 -12 99 -36 99 -21 0 -44
-60 -44 -114 0 -34 -4 -45 -17 -48 -12 -2 -21 -24 -33 -81 l-17 -77 893 0 893
0 36 35 35 36 0 257 c0 254 0 258 30 367 64 238 133 498 176 663 25 96 47 179
50 186 4 10 -131 51 -238 71 -16 3 -18 -8 -18 -123 0 -70 -4 -134 -10 -142 -5
-9 -5 -19 1 -26 5 -7 8 -86 7 -190 l-3 -179 -160 -7 c-88 -4 -250 -11 -360
-17 -110 -6 -252 -14 -315 -16 -141 -7 -324 -23 -347 -32 -15 -5 -14 -3 2 10
11 9 28 17 38 17 9 0 34 17 55 38 l37 37 353 -9 353 -8 25 23 c37 34 44 78 44
270 0 218 8 329 24 323 17 -6 68 61 94 122 15 37 23 80 26 145 9 188 37 287
100 357 l36 39 0 732 c0 402 2 731 4 731 3 0 16 -4 31 -10 20 -8 32 -6 53 8
14 9 23 11 19 5 -11 -18 1 -16 19 2 12 11 20 12 34 5 14 -8 35 -5 76 9 l57 19
-44 8 c-24 4 -48 7 -52 6 -4 -1 -50 8 -102 20 l-95 23 0 178 0 179 -34 34
c-28 28 -42 34 -75 34 -32 0 -41 -4 -42 -17 0 -10 -1 -161 -2 -336 -2 -269 -5
-321 -17 -330 -8 -7 -16 -25 -18 -42 -1 -16 -9 -46 -16 -65 -8 -19 -19 -49
-26 -66 -6 -18 -19 -40 -29 -50 -9 -11 -28 -41 -42 -69 -30 -60 -52 -98 -60
-105 -9 -8 -34 -57 -80 -155 -24 -49 -46 -91 -51 -93 -4 -2 -8 -10 -8 -17 0
-17 -54 -74 -98 -105 -108 -73 -258 -43 -311 63 -22 46 -23 48 -6 83 9 19 24
38 33 41 53 19 107 47 156 83 62 45 220 220 248 275 57 113 42 208 -43 277
-29 23 -49 30 -103 35 -63 5 -68 4 -91 -21 -16 -18 -33 -26 -52 -25 -37 3
-106 -9 -166 -28 -52 -17 -149 -13 -155 6 -2 6 -9 11 -15 11 -17 0 -90 40 -99
54 -4 6 -8 7 -8 2 0 -5 -7 -3 -15 4 -24 20 -19 114 10 175 13 28 28 78 34 111
5 32 29 113 54 179 l44 120 -235 3 c-129 1 -237 1 -239 -2 -2 -2 -8 -61 -13
-132 -25 -332 -32 -395 -50 -484 -30 -139 -37 -294 -16 -344 9 -21 16 -51 16
-67 0 -15 5 -31 10 -34 6 -3 10 -17 10 -30 0 -13 9 -63 21 -112 13 -54 22
-126 23 -184 l1 -97 86 -11 c47 -6 119 -11 160 -12 41 -1 101 -4 134 -8 55 -5
60 -8 63 -31 2 -15 0 -20 -5 -13 -5 6 -26 11 -48 10 -22 -1 -173 3 -335 8
-359 11 -381 10 -392 -10 -6 -10 -14 -12 -26 -6 -9 5 -183 9 -387 10 -353 1
-645 9 -645 18 0 2 8 23 18 46 11 23 34 80 51 127 18 47 57 139 86 205 29 66
62 146 74 177 29 81 61 127 117 172 76 60 84 72 84 128 0 71 -19 99 -102 148
-203 121 -338 245 -403 371 -14 26 -14 29 0 29 16 0 31 10 65 44 11 11 28 21
37 22 10 2 45 17 78 33 l60 30 -264 0 -264 1 -34 -37z m2580 -749 c-3 -8 -1
-25 5 -37 6 -12 13 -51 16 -87 3 -36 7 -76 9 -90 4 -28 -37 -80 -64 -80 -10 0
-21 -4 -24 -10 -12 -19 -65 -11 -89 14 -25 28 -46 121 -46 205 0 58 -4 55 115
89 75 21 88 20 78 -4z m-1798 -826 c2 -13 12 -180 20 -373 14 -299 18 -352 32
-362 9 -7 18 -11 21 -9 4 4 -12 420 -24 649 l-7 118 169 -5 169 -5 6 -73 c4
-40 7 -108 8 -151 1 -58 4 -78 14 -74 9 3 11 39 9 146 l-3 143 53 -5 c29 -4
63 -9 76 -13 14 -4 22 -2 22 5 0 8 22 11 73 9 68 -3 72 -4 70 -25 -2 -19 2
-23 30 -24 17 -1 36 -1 41 0 4 1 14 -3 21 -9 7 -6 21 -9 31 -9 42 4 64 -2 64
-17 0 -12 -11 -15 -55 -12 -36 2 -55 7 -55 15 0 17 -12 16 -34 0 -17 -12 -10
-15 60 -28 94 -17 109 -17 110 -4 2 27 26 94 37 103 7 5 21 6 33 2 17 -7 20
-15 17 -42 l-4 -33 16 25 16 25 -6 -30 c-43 -203 -58 -407 -33 -474 13 -37 2
-37 -17 0 -14 26 -16 47 -10 113 5 64 4 78 -6 69 -7 -7 -13 -40 -13 -77 -1
-52 -4 -65 -16 -63 -8 1 -18 11 -21 22 -6 18 -7 18 -17 -7 -24 -59 -13 -195
19 -236 16 -20 18 -21 22 -5 3 13 9 6 22 -24 17 -40 21 -43 55 -43 35 0 38 2
44 35 6 29 17 42 59 69 81 53 95 72 94 136 0 69 16 110 43 110 11 0 20 -4 20
-10 0 -5 -4 -10 -8 -10 -8 0 -52 -79 -52 -93 0 -11 73 2 87 16 13 13 13 17 -6
36 -18 18 -19 22 -6 27 8 4 22 3 31 0 8 -3 12 -2 9 4 -3 6 -13 10 -21 10 -8 0
-14 5 -14 10 0 6 4 10 9 10 5 0 16 3 24 6 10 3 18 -4 25 -23 l10 -28 1 33 c1
25 -3 32 -18 32 -27 0 -34 15 -16 30 8 7 15 25 15 40 0 20 6 30 23 35 22 7 22
8 1 12 -19 4 -23 15 -32 86 -8 61 -8 84 1 89 7 4 12 17 12 29 0 24 27 36 95
43 19 2 36 9 38 16 5 13 -20 10 -62 -6 -11 -4 -16 -1 -16 10 0 14 17 16 125
16 119 0 125 -1 125 -20 0 -16 5 -19 23 -15 20 5 34 6 77 5 8 -1 41 1 73 3 73
5 107 -1 107 -19 0 -23 28 -16 32 9 3 20 8 22 71 22 89 0 99 -12 95 -110 -3
-66 -4 -70 -28 -73 -60 -7 -72 -12 -60 -27 7 -8 10 -26 8 -40 -5 -23 -3 -25
36 -25 l41 0 -3 -377 c-2 -208 -5 -379 -5 -380 -1 -1 -15 -5 -31 -9 -24 -6
-27 -4 -24 12 2 11 11 18 21 16 12 -2 17 4 17 22 0 19 -4 23 -20 19 -11 -3
-20 0 -20 6 0 6 -11 11 -25 11 -16 0 -25 -6 -25 -15 0 -11 7 -14 25 -9 15 4
25 2 25 -4 0 -15 -41 -42 -52 -36 -5 3 -25 6 -44 6 l-35 0 3 52 c4 48 6 51 34
54 16 2 33 8 38 13 16 15 45 10 65 -10 23 -23 31 -18 31 20 0 22 -4 26 -20 22
-16 -4 -20 0 -20 21 0 19 5 26 20 26 29 0 24 13 -10 29 -29 12 -59 11 -124 -5
-21 -5 -27 -4 -22 5 4 6 13 8 19 5 8 -4 7 -2 -1 7 -17 19 -72 21 -72 3 0 -11
-20 -14 -90 -14 -53 0 -90 4 -90 10 0 6 30 10 69 10 48 0 72 4 81 15 6 8 15
14 18 13 20 -2 33 3 28 11 -4 6 -19 6 -39 1 -17 -5 -65 -8 -104 -7 -77 2 -83
-1 -83 -48 0 -18 7 -24 36 -29 21 -4 34 -12 31 -19 -2 -7 -10 -11 -18 -10 -8
0 -25 3 -39 5 -20 2 -26 -2 -28 -20 -2 -13 2 -30 10 -39 10 -13 10 -17 1 -20
-8 -3 -13 -22 -13 -49 0 -38 4 -46 24 -54 30 -11 43 -30 20 -30 -12 0 -15 -6
-10 -22 3 -13 6 -29 6 -35 0 -8 13 -13 34 -13 18 0 39 -7 46 -15 7 -8 23 -15
36 -15 23 0 24 -3 24 -65 0 -50 4 -66 18 -74 13 -8 7 -10 -30 -11 -36 0 -48 4
-48 15 0 14 -12 17 -82 19 -18 1 -22 -5 -23 -29 0 -29 -2 -30 -47 -33 l-48 -3
-1 -72 c-1 -90 -18 -152 -42 -151 -9 0 -37 1 -62 2 -35 2 -45 6 -46 20 -1 15
-2 15 -6 -1 -4 -17 -14 -18 -106 -13 -139 8 -156 8 -206 2 -37 -4 -44 -2 -48
14 -6 24 -26 26 -47 5 -23 -24 -36 -18 -37 18 l-1 32 -11 -34 -10 -33 -401 6
c-221 3 -531 6 -691 6 -159 0 -298 3 -308 6 -41 13 -44 50 -36 404 18 805 21
895 23 898 2 1 7 -50 10 -115 4 -65 16 -244 27 -398 11 -154 24 -342 28 -418
5 -76 11 -140 12 -141 2 -2 15 0 27 5 27 10 29 -69 -14 684 -14 242 -28 488
-31 548 l-6 107 206 0 c206 0 207 0 212 -22z m1192 -115 l55 -58 -5 -87 c-5
-89 -5 -90 -70 -187 -23 -34 -33 -42 -54 -39 -28 3 -45 28 -20 28 17 0 87 80
87 99 0 7 -10 21 -22 31 -21 17 -23 16 -42 -2 -37 -34 -51 -20 -48 49 2 33 -1
69 -6 80 -22 41 17 143 56 143 8 0 39 -26 69 -57z m928 -1028 c0 -11 -6 -19
-12 -18 -19 4 -44 -54 -41 -95 2 -28 8 -38 23 -41 21 -4 35 -18 35 -38 0 -14
-87 -18 -106 -5 -15 10 -30 127 -15 118 6 -4 11 -14 11 -22 0 -8 4 -14 9 -14
16 0 24 85 11 110 -7 13 -8 20 -2 16 6 -3 14 -1 17 4 4 6 21 10 38 8 24 -2 32
-8 32 -23z m-480 -385 c22 -6 92 -13 155 -15 155 -7 197 -13 204 -30 9 -24 -9
-26 -125 -19 -97 6 -112 9 -118 26 -6 18 -8 18 -20 4 -10 -12 -32 -16 -87 -16
-71 0 -74 1 -74 23 0 39 5 41 65 27z m-517 -755 c88 -74 11 -209 -100 -175
-42 12 -78 57 -78 98 0 88 109 135 178 77z m236 -6 c62 -73 3 -193 -84 -174
-30 7 -30 6 -30 -39 0 -42 -2 -46 -25 -46 l-25 0 0 144 0 144 69 1 c66 0 71
-1 95 -30z m227 1 c67 -67 8 -195 -81 -175 -30 7 -30 6 -30 -39 0 -42 -2 -46
-25 -46 l-25 0 0 144 0 144 66 1 c60 0 69 -2 95 -29z m324 10 c13 -15 20 -42
23 -100 l5 -80 -32 0 -31 0 0 69 c0 77 -13 97 -55 87 -24 -6 -25 -10 -25 -81
0 -73 -1 -75 -25 -75 -25 0 -25 0 -25 99 l0 99 74 1 c61 1 76 -3 91 -19z m252
3 c4 -9 1 -19 -5 -21 -7 -2 -12 -18 -12 -36 0 -36 -19 -58 -65 -77 l-30 -12
35 -9 c94 -26 94 -105 -1 -123 -82 -15 -147 49 -100 99 22 24 28 61 10 71 -20
13 -30 55 -17 78 20 38 41 46 111 47 54 0 69 -3 74 -17z"/>
<path d="M2171 2694 c-1 -6 4 -25 10 -41 9 -26 5 -43 -20 -109 -25 -64 -28
-81 -18 -89 47 -35 109 -96 104 -102 -4 -3 -29 6 -56 20 -30 17 -64 27 -90 27
-42 0 -54 -13 -23 -25 31 -12 165 -45 185 -45 10 0 21 -9 24 -20 3 -11 9 -20
13 -20 4 0 10 9 13 20 4 14 14 20 34 20 16 0 35 6 41 12 8 8 37 12 72 12 54
-1 59 1 65 24 3 14 2 29 -4 35 -5 5 -7 16 -4 24 4 11 0 13 -21 7 -14 -3 -26
-2 -26 3 0 5 -16 9 -35 9 -19 -1 -35 -4 -35 -7 0 -9 39 -19 73 -19 29 0 38
-19 10 -21 -10 0 -44 -4 -75 -8 -32 -4 -58 -4 -58 1 0 19 45 98 56 98 7 0 24
-4 38 -10 17 -6 26 -6 26 0 0 6 13 10 29 10 21 0 30 6 34 22 8 29 1 38 -31 37
-27 0 -27 0 -4 -11 46 -22 22 -40 -39 -30 -38 7 -44 11 -41 29 2 16 -7 29 -32
45 -20 13 -36 29 -36 36 0 6 -6 12 -14 12 -7 0 -30 14 -51 30 -46 37 -63 38
-71 5 -8 -33 -20 -32 -32 3 -6 15 -11 22 -11 16z"/>
<path d="M2275 2031 c-32 -5 -41 -11 -43 -28 -2 -13 1 -24 7 -24 6 -1 16 -2
23 -3 6 0 13 -7 15 -13 5 -15 -44 -36 -65 -28 -8 3 -12 0 -10 -7 3 -7 19 -14
36 -16 18 -2 32 -7 32 -11 0 -13 -48 -19 -59 -8 -6 6 -11 7 -11 2 0 -16 14
-31 37 -44 20 -10 23 -20 25 -104 3 -81 5 -92 22 -95 15 -3 17 0 11 14 -4 11
-7 44 -6 76 1 31 -3 59 -8 63 -18 11 -12 54 8 65 11 5 40 10 64 10 40 0 45 3
49 25 7 34 -15 51 -47 37 -28 -13 -30 -10 -13 18 9 13 9 27 3 46 -11 32 -16
33 -70 25z"/>
<path d="M2845 1874 c-137 -6 -256 -12 -262 -13 -15 -1 -16 -55 -6 -268 l6
-143 312 0 c171 0 314 2 316 4 5 5 -9 302 -17 384 l-5 52 -47 -2 c-26 0 -159
-7 -297 -14z"/>
<path d="M1755 1831 c-29 -6 -30 -8 -35 -71 -5 -68 -19 -62 -21 8 -1 38 -3 36
-13 -10 -10 -44 -26 -32 -26 18 0 40 -2 45 -15 34 -8 -6 -19 -9 -25 -5 -6 4
-10 -10 -10 -38 0 -36 -6 -51 -29 -76 -25 -27 -32 -29 -60 -21 -20 6 -31 5
-31 -2 0 -5 9 -12 20 -15 14 -4 20 -14 20 -32 0 -49 17 -57 25 -12 9 52 28 49
36 -5 l6 -39 3 40 c2 30 5 20 12 -39 7 -67 6 -81 -8 -97 -21 -24 -15 -50 18
-68 24 -14 28 -14 46 3 12 10 23 37 27 67 7 52 18 61 35 29 13 -25 40 -26 40
-2 0 45 22 92 44 98 13 3 23 11 23 17 -1 38 4 80 9 75 3 -3 11 -52 19 -108 7
-56 18 -107 25 -113 9 -9 10 -5 5 18 l-6 30 20 -23 c11 -13 25 -21 30 -18 12
8 -21 75 -36 76 -7 0 -13 8 -12 18 0 11 2 12 6 4 3 -9 9 -10 18 -2 26 21 45 1
68 -72 4 -11 13 -15 26 -11 26 7 26 5 1 45 l-20 33 33 11 c17 6 33 17 35 25 2
11 -7 14 -39 11 -29 -3 -40 -1 -35 7 4 6 14 11 22 11 8 0 14 5 14 10 0 6 -9
10 -19 10 -24 0 -36 33 -22 57 6 10 11 13 11 8 0 -6 18 -11 41 -12 33 -2 40 1
35 14 -5 11 -1 14 13 10 17 -4 17 -2 5 22 -8 14 -14 34 -14 44 0 9 -7 17 -15
17 -8 0 -15 -7 -15 -15 0 -8 -4 -15 -10 -15 -5 0 -10 5 -10 10 0 6 -7 10 -15
10 -9 0 -15 -9 -15 -25 0 -16 6 -25 15 -25 8 0 15 -4 15 -10 0 -13 -17 -13
-25 0 -4 6 -10 8 -14 6 -4 -3 -6 8 -3 23 3 23 -1 30 -20 36 -35 11 -88 13 -94
3 -3 -4 -17 1 -31 12 -27 21 -30 21 -78 11z"/>
<path d="M2092 1618 c-6 -15 -23 -34 -37 -44 -27 -17 -34 -57 -12 -71 6 -4 25
-12 41 -18 41 -14 42 -28 2 -46 -32 -15 -35 -15 -39 2 -5 17 -7 18 -34 4 -15
-8 -45 -15 -66 -15 -34 0 -38 -3 -35 -22 3 -21 8 -23 48 -20 25 2 63 11 85 19
105 39 105 39 93 51 -9 9 -7 17 7 32 21 23 12 23 218 6 l57 -5 0 35 c0 35 0
35 42 32 39 -3 44 -6 49 -33 6 -27 7 -28 8 -5 0 14 -6 36 -15 49 -15 20 -22
22 -58 16 -61 -10 -339 -6 -350 5 -7 7 0 10 17 10 15 0 27 5 27 10 0 6 -6 10
-14 10 -8 0 -16 6 -19 13 -3 7 -9 0 -15 -15z"/>
<path d="M3280 4316 c39 -39 141 -96 170 -96 42 0 120 30 188 73 34 21 62 41
62 43 0 2 -100 4 -222 4 l-223 0 25 -24z"/>
<path d="M4540 3838 c0 -2 8 -57 17 -123 19 -140 20 -189 11 -345 -3 -63 -4
-105 -1 -93 4 22 5 22 41 -12 20 -19 45 -35 55 -35 9 0 17 -4 17 -10 0 -5 15
-10 34 -10 30 0 48 -10 52 -30 0 -3 4 -13 9 -23 4 -10 3 -49 -4 -87 -6 -38
-10 -90 -10 -117 l1 -48 9 40 c4 22 17 99 29 170 19 122 44 231 85 370 9 33
21 78 25 100 5 22 15 60 23 83 21 61 29 57 -243 132 -63 17 -123 34 -132 36
-10 3 -18 4 -18 2z"/>
<path d="M818 2433 c-3 -81 2 -206 8 -212 7 -7 74 28 74 38 0 6 16 18 35 27
34 16 35 18 35 73 0 35 -4 51 -9 42 -12 -18 -35 -4 -89 53 -23 25 -44 46 -47
46 -3 0 -6 -30 -7 -67z"/>
<path d="M843 1273 l-23 -4 0 -240 c0 -213 -2 -239 -16 -239 -13 0 -15 -5 -9
-22 4 -13 10 -96 12 -186 l5 -163 186 1 c254 2 240 -1 244 68 3 54 5 57 31 60
l27 3 0 -70 c0 -67 1 -71 28 -85 15 -8 38 -26 51 -40 14 -14 30 -26 38 -26 8
0 13 -12 13 -30 0 -16 -4 -30 -9 -30 -5 0 -7 -18 -4 -40 4 -28 0 -50 -16 -80
l-21 -40 205 0 c113 0 205 1 205 3 0 1 -7 60 -15 131 -8 71 -13 144 -9 161 4
21 1 35 -9 43 -12 10 -20 -3 -48 -81 -33 -88 -36 -92 -67 -95 -18 -2 -32 1
-32 7 0 6 -6 11 -13 11 -41 0 -74 79 -45 108 9 9 9 18 0 37 -22 48 -32 27 -32
-70 l0 -95 -30 0 -30 0 0 88 0 87 -69 72 c-41 42 -72 84 -76 102 -7 35 -60 78
-119 98 -23 8 -48 21 -56 28 -8 8 -26 15 -40 17 -14 2 -30 7 -37 11 -7 4 -16
0 -22 -10 -9 -16 -10 -16 -11 5 0 12 -4 22 -10 22 -5 0 -10 -4 -10 -10 0 -31
-59 17 -63 51 -1 16 4 23 22 25 14 3 27 7 30 9 9 9 1 79 -18 159 -11 44 -27
112 -35 150 -22 97 -38 112 -103 99z"/>
</g>
</svg>
